PathFileType	4	(X/Y/Z)	E:\Marcel_BSc\Ayumi_22_01_2025\22-01-2025\sumo_dl_2.trc
DataRate	CameraRate	NumFrames	NumMarkers	Units	OrigDataRate	OrigDataStartFrame	OrigNumFrames
200.0	200.0	7	47	mm	200.0	2008	2294	
Frame#	Time	LBHD			FHD			RBHD			RBAR			LBAR			RSACR			LSACR			USACR			C7			CLAV			T10			RSHO			LSHO			LTHI1			LTHI3			LTHI2			LTIB1			LTIB2			LTIB3			LMMAL			LLMAL			LHEE			LMT1			LMT5			LMT3			RTHI1			RTHI2			RTHI3			RTIB1			RTIB3			RTIB2			RLMAL			RMMAL			RHEE			RMT5			RMT1			RMT3			LDUPA			LMUPA			LUUPA			LRAD			RUL			RRAD			RUFIN			RMUPA			RDUPA			RUUPA			
		X1	Y1	Z1	X2	Y2	Z2	X3	Y3	Z3	X4	Y4	Z4	X5	Y5	Z5	X6	Y6	Z6	X7	Y7	Z7	X8	Y8	Z8	X9	Y9	Z9	X10	Y10	Z10	X11	Y11	Z11	X12	Y12	Z12	X13	Y13	Z13	X14	Y14	Z14	X15	Y15	Z15	X16	Y16	Z16	X17	Y17	Z17	X18	Y18	Z18	X19	Y19	Z19	X20	Y20	Z20	X21	Y21	Z21	X22	Y22	Z22	X23	Y23	Z23	X24	Y24	Z24	X25	Y25	Z25	X26	Y26	Z26	X27	Y27	Z27	X28	Y28	Z28	X29	Y29	Z29	X30	Y30	Z30	X31	Y31	Z31	X32	Y32	Z32	X33	Y33	Z33	X34	Y34	Z34	X35	Y35	Z35	X36	Y36	Z36	X37	Y37	Z37	X38	Y38	Z38	X39	Y39	Z39	X40	Y40	Z40	X41	Y41	Z41	X42	Y42	Z42	X43	Y43	Z43	X44	Y44	Z44	X45	Y45	Z45	X46	Y46	Z46	X47	Y47	Z47	
2008	10.03	54.546581	1464.478	-898.7049	44.246548	1481.9098	-960.01886	78.789986	1440.9591	-1029.3973	251.40062	236.87355	-2082.9895	256.29288	249.77994	137.75758	426.95172	882.612	-991.17694	433.13547	888.23999	-918.84631	422.13205	896.72968	-954.49823	207.039	1280.224	-946.21033	105.81875	1160.0536	-951.50452	356.29358	1053.1907	-960.18744	125.25572	1216.6261	-1118.131	144.97643	1212.1198	-781.96936	374.86115	577.15308	-668.3269	372.62265	512.08801	-657.93488	333.25626	535.71716	-636.63	338.57028	245.96776	-515.8078	376.13736	228.60101	-545.29309	349.55984	181.22191	-508.85791	289.84042	67.325272	-531.25964	347.69446	72.552605	-485.8349	352.75604	31.302757	-535.92395	207.07771	45.072693	-406.26288	274.56152	28.617039	-363.2298	227.66194	40.823994	-378.97867	372.27945	565.32227	-1210.7638	330.87064	526.08264	-1243.2555	371.93878	501.71011	-1224.8796	344.6008	274.92975	-1360.1244	355.47119	211.08414	-1370.7069	383.03043	257.22433	-1332.1512	355.33884	71.815224	-1410.3135	282.38135	67.11219	-1381.9661	355.25259	29.81601	-1360.8677	287.90894	26.684343	-1539.3307	227.90225	35.442177	-1511.39	250.88385	34.254669	-1532.5341	298.17062	1078.7959	-678.4707	249.60257	1073.6318	-670.0556	238.53386	1128.0927	-698.32697	260.93918	812.85846	-484.83167	325.32242	816.47894	-1378.2222	279.34314	791.34174	-1345.4266	268.87878	739.92029	-1385.0619	234.15598	1154.04	-1191.9849	259.15085	1106.0709	-1223.4436	278.31818	1164.2831	-1172.3127
2009	10.035	56.15221	1466.2239	-898.52771	45.954304	1483.2925	-959.99475	80.331841	1442.8403	-1029.1462	251.38768	236.91826	-2083.084	256.26562	249.78491	137.75589	425.85974	882.50629	-991.21265	431.94376	888.34857	-918.81409	421.04254	896.72717	-954.50464	208.42993	1281.5643	-946.08167	106.54711	1162.0731	-951.56061	356.24219	1053.5372	-960.05402	126.73055	1218.9236	-1118.1259	145.98332	1214.325	-782.02722	373.91797	577.22601	-668.61115	371.99722	512.11749	-658.33221	332.4996	535.5567	-636.99298	338.51151	245.83269	-516.05408	375.99072	228.58292	-545.56152	349.41647	181.12257	-509.09174	289.7811	67.279739	-531.30817	347.62241	72.56282	-485.93307	352.73813	31.289808	-535.93573	207.06117	45.059437	-406.25629	274.59314	27.289963	-363.07678	227.62903	40.892975	-378.99551	371.26511	565.38788	-1210.3002	329.99817	525.79102	-1242.8273	370.85406	502.18112	-1224.3503	344.43307	274.81537	-1359.7081	355.30865	210.98561	-1370.4689	382.86691	257.10349	-1331.83	355.20319	71.842972	-1410.1698	282.32651	67.023384	-1381.8739	355.2262	29.786741	-1360.8336	287.83813	26.714649	-1539.3225	227.83815	35.421509	-1511.3851	250.85846	34.254704	-1532.5366	298.59467	1081.3383	-677.45374	249.61211	1076.8052	-668.50079	239.14224	1130.8141	-697.72546	262.51706	817.93005	-479.66101	326.47845	821.22772	-1382.2568	280.28345	795.63538	-1350.1178	270.12836	744.78876	-1390.614	235.36777	1156.6562	-1192.0159	260.09351	1109.0988	-1223.9459	279.40991	1166.4259	-1171.9365
2010	10.04	57.864521	1467.9624	-898.15411	47.580055	1485.0887	-959.72485	81.886261	1444.6796	-1028.9066	251.37869	236.98965	-2083.157	256.2547	249.78331	137.75749	424.79568	882.5376	-991.17963	430.99591	888.10364	-918.81921	420.1123	896.62653	-954.52148	209.96095	1282.7434	-945.98291	107.27532	1164.0059	-951.67578	356.21658	1053.6678	-960.01575	128.01456	1221.806	-1118.2606	146.93848	1216.3229	-782.18451	373.05865	577.23828	-668.95581	371.2691	512.06079	-658.69983	331.68475	535.34955	-637.37598	338.28183	245.85147	-516.3736	375.80466	228.56935	-545.85522	349.38837	181.35269	-509.16647	289.75034	67.239944	-531.36487	347.58691	72.58316	-486.02661	352.73398	31.283453	-535.95789	207.03661	45.048279	-406.26791	274.22131	30.198271	-363.2897	227.61308	41.309299	-378.90768	370.24265	565.50183	-1209.7922	329.16837	525.66821	-1242.3391	370.59714	501.6716	-1223.9722	344.17798	274.70184	-1359.3478	355.14926	210.92001	-1370.2185	382.67371	257.06253	-1331.4832	355.13025	71.743706	-1410.0466	282.1962	67.042542	-1381.798	355.18362	29.793842	-1360.8204	287.79837	26.728661	-1539.2999	227.76897	35.393261	-1511.3771	250.85571	34.293056	-1532.5184	299.01123	1083.9148	-676.4259	250.03651	1079.7788	-667.18982	239.86005	1133.4836	-697.08197	263.73102	823.26837	-474.35516	327.65164	826.37463	-1386.4377	281.13541	799.97748	-1354.8223	271.35922	749.56195	-1396.1393	236.53691	1159.3895	-1192.0243	261.24023	1111.712	-1224.4521	280.68549	1168.2424	-1171.6328
2011	10.045	59.434254	1469.6943	-897.90118	49.142902	1487.0581	-959.30573	83.546616	1446.3538	-1028.7513	251.34525	236.88803	-2083.0007	256.24716	249.77217	137.75421	423.32877	882.5722	-990.91217	429.83612	888.06989	-918.82733	418.95969	896.72992	-954.46918	211.3974	1283.9945	-945.85132	108.09291	1165.8851	-951.80939	356.12314	1053.8768	-959.9364	129.50735	1224.2056	-1118.1464	148.04915	1218.4307	-782.2558	372.03662	577.21686	-669.28479	370.55978	512.14777	-659.09503	330.90942	535.25165	-637.73566	338.16522	245.85301	-516.63477	375.62558	228.58578	-546.12152	349.40552	181.35976	-509.30994	289.73111	67.158646	-531.45868	347.53104	72.608849	-486.11761	352.68021	31.267057	-536.00525	207.02	45.072124	-406.28439	274.39606	27.498505	-363.06311	227.54384	41.024059	-378.96017	369.3064	565.5141	-1209.4023	328.41837	525.45349	-1241.8788	369.74014	501.90335	-1223.5536	344.2775	274.0275	-1358.9955	354.98267	210.82928	-1369.9388	382.49985	256.98856	-1331.1216	355.02505	71.705284	-1409.9044	282.06696	66.996109	-1381.6986	355.1377	29.757746	-1360.7827	287.76089	26.794577	-1539.2787	227.71194	35.38623	-1511.3647	250.83383	34.329781	-1532.5183	299.40201	1086.4637	-675.40692	250.46951	1082.8169	-665.88684	240.5405	1136.1301	-696.48871	264.58041	828.69666	-469.77289	328.62537	830.87604	-1390.2985	281.84943	804.4801	-1359.5369	272.42834	754.58398	-1401.6072	237.78928	1161.9106	-1192.078	262.0386	1114.9764	-1224.9935	281.79956	1170.2838	-1171.2777
2012	10.05	60.985931	1471.379	-897.69012	50.717445	1488.7876	-959.0282	84.981949	1448.2987	-1028.3962	251.37332	236.99586	-2083.1453	256.21799	249.78024	137.75536	422.34064	882.73096	-990.82782	428.8681	887.84967	-918.86011	418.12125	896.39288	-954.56262	212.41299	1285.7405	-945.86145	108.90147	1167.8198	-951.87408	355.99738	1054.1541	-959.84119	130.99626	1226.5406	-1117.9886	148.96687	1220.4758	-782.42877	371.00293	577.23541	-669.6889	369.88257	512.13574	-659.46246	330.13943	535.08002	-638.12177	337.47836	245.23189	-517.52332	375.41122	228.55696	-546.43066	349.14981	181.29883	-509.61136	289.70135	67.081871	-531.56177	347.4664	72.607552	-486.21088	352.66812	31.271189	-536.02405	207.01451	45.02763	-406.27954	274.33264	27.612299	-363.08347	227.57951	41.291473	-378.91028	368.37192	565.49939	-1208.9915	327.71371	525.14838	-1241.4233	369.38486	501.491	-1223.2272	343.81729	274.51068	-1358.5585	354.74789	210.76718	-1369.5911	382.30508	256.88501	-1330.8229	354.8989	71.740929	-1409.7107	282.0361	66.827301	-1381.5653	355.10809	29.766359	-1360.771	287.69833	26.818094	-1539.2638	227.65459	35.384663	-1511.3475	250.74393	34.335075	-1532.5167	299.7775	1088.9142	-674.44067	250.91052	1085.7953	-664.57739	241.22501	1138.7258	-695.90918	265.48956	834.10699	-464.93591	329.40625	836.17993	-1394.1169	279.22678	812.44525	-1364.5521	273.56036	759.55096	-1407.2191	238.98154	1164.533	-1191.9993	263.24121	1117.8676	-1225.5636	282.92249	1172.2549	-1170.8872
2013	10.055	62.549084	1473.0348	-897.44135	52.268757	1490.611	-958.67365	86.556068	1449.9496	-1028.193	251.27176	236.75552	-2082.7888	256.19904	249.7811	137.74712	421.37067	882.59918	-990.87878	427.77451	887.77826	-918.83746	417.1496	896.19147	-954.62714	214.21465	1286.432	-945.67493	109.69874	1169.6647	-951.96112	355.96109	1054.2239	-959.77911	132.57367	1228.7866	-1117.8765	150.05765	1222.5365	-782.55243	370.90836	577.98065	-669.48389	369.16583	512.16974	-659.84998	329.32315	534.89868	-638.50763	337.33655	245.25285	-517.79388	375.26529	228.54713	-546.69958	348.91794	181.47145	-509.8092	289.6889	67.005127	-531.5708	347.42725	72.639053	-486.29037	352.62515	31.251587	-536.05432	207.00996	44.994514	-406.29416	274.42313	27.623766	-363.07364	227.53342	41.272518	-378.87531	367.42603	565.55945	-1208.5427	326.97098	524.85974	-1241.0709	368.50928	501.96777	-1222.5543	343.7796	274.45755	-1358.074	354.57971	210.70441	-1369.3691	382.12238	256.81461	-1330.5295	354.75894	71.76487	-1409.5546	281.88019	66.762154	-1381.4453	355.06821	29.733086	-1360.7461	287.62036	26.902451	-1539.217	227.55664	35.354389	-1511.3376	250.67177	34.32761	-1532.5129	300.19019	1091.3435	-673.47339	251.27179	1088.7457	-663.33984	241.95224	1141.2935	-695.33392	266.52972	839.45605	-459.90884	330.37729	840.99994	-1398.1501	283.42432	813.40466	-1369.0199	274.62973	764.52045	-1412.7139	240.22272	1167.0679	-1192.0044	264.26404	1120.7014	-1226.0265	284.03854	1174.2125	-1170.4972
2014	10.06	64.111855	1474.6013	-897.17291	53.84256	1492.1831	-958.44135	88.063637	1451.7025	-1027.9424	251.26291	236.689	-2082.6787	256.17661	249.77827	137.7556	420.29559	882.57184	-990.87775	426.72147	887.52399	-918.88513	416.08777	896.22321	-954.55585	215.74719	1287.5763	-945.61328	110.51212	1171.5596	-952.01422	355.93515	1054.2812	-959.72675	134.00073	1231.1143	-1117.6995	150.97879	1224.5477	-782.69141	369.35825	577.48657	-670.27972	368.45514	512.07642	-660.26318	328.59903	534.79425	-638.86896	337.57214	245.82436	-517.52405	375.0816	228.52293	-546.99579	348.77805	181.33696	-510.08087	289.64587	66.96328	-531.64423	347.36557	72.639603	-486.38528	352.62875	31.237648	-536.06531	207.00613	44.99585	-406.28815	274.42169	27.463095	-363.0755	227.53528	41.329166	-378.89334	366.90439	565.5744	-1208.7104	326.20981	524.63007	-1240.6541	368.06927	501.64337	-1222.2664	343.56921	274.46268	-1357.649	354.40189	210.70232	-1369.1068	381.95474	256.71878	-1330.1938	354.59924	71.79731	-1409.4225	281.88519	66.618759	-1381.3188	355.02435	29.726532	-1360.7219	287.5256	26.947504	-1539.1968	227.50589	35.315014	-1511.3198	250.59781	34.342762	-1532.5179	300.54626	1093.788	-672.52551	251.73978	1091.6648	-662.09174	242.62036	1143.8943	-694.79364	267.20685	844.82965	-455.59708	331.60721	845.4043	-1402.361	280.09891	821.01038	-1374.429	275.58032	769.74597	-1418.194	241.72516	1169.9595	-1192.3195	265.32968	1123.4117	-1226.5154	285.15039	1176.105	-1170.1279
